<?xml version="1.0" encoding="UTF-8" standalone="no"?>
<!-- Created with Inkscape (http://www.inkscape.org/) -->

<svg
   width="110.99953mm"
   height="160.71097mm"
   viewBox="0 0 110.99953 160.71097"
   version="1.1"
   id="svg5"
   inkscape:version="1.1.2 (0a00cf5339, 2022-02-04)"
   sodipodi:docname="vsimharp.svg"
   xmlns:inkscape="http://www.inkscape.org/namespaces/inkscape"
   xmlns:sodipodi="http://sodipodi.sourceforge.net/DTD/sodipodi-0.dtd"
   xmlns="http://www.w3.org/2000/svg"
   xmlns:svg="http://www.w3.org/2000/svg">
  <sodipodi:namedview
     id="namedview7"
     pagecolor="#ffffff"
     bordercolor="#000000"
     borderopacity="0.25"
     inkscape:pageshadow="2"
     inkscape:pageopacity="0.0"
     inkscape:pagecheckerboard="0"
     inkscape:document-units="mm"
     showgrid="false"
     inkscape:snap-global="false"
     inkscape:zoom="0.45925037"
     inkscape:cx="180.7293"
     inkscape:cy="301.57841"
     inkscape:window-width="1920"
     inkscape:window-height="1011"
     inkscape:window-x="0"
     inkscape:window-y="0"
     inkscape:window-maximized="1"
     inkscape:current-layer="g8"
     fit-margin-top="0"
     fit-margin-left="0"
     fit-margin-right="0"
     fit-margin-bottom="0" />
  <defs
     id="defs2" />
  <g
     inkscape:label="Ciseal 1"
     inkscape:groupmode="layer"
     id="layer1"
     transform="translate(-43.23739,-17.795215)">
    <g
       id="g8"
       transform="matrix(2.0410386,0,0,2.0410386,-138.46251,-151.52451)">
      <g
         id="g10757">
        <path
           id="path1"
           style="fill:#000000;fill-opacity:1;stroke:none;stroke-width:7.71416;stroke-dasharray:none;stroke-opacity:1"
           d="M 175.42969 0.001953125 C 173.22328 -0.042017594 172.04883 1.3398438 172.04883 1.3398438 L 107.84375 50.900391 C 107.84375 50.900391 105.35266 52.89824 105.15039 55.013672 C 104.94828 57.129096 107.33008 60.121094 107.33008 60.121094 L 116.70508 70.941406 C 116.70508 70.941406 13.477153 155.6683 0.8515625 298.0293 C -12.116553 444.25245 127.33398 600.76953 127.33398 600.76953 C 127.33398 600.76953 131.81465 606.68527 135.51367 607.34961 C 139.21269 608.0138 145.48047 603.13477 145.48047 603.13477 L 176.87109 582.0293 C 176.87109 582.0293 249.08637 598.227 257.72461 592.52539 C 260.75697 590.52387 261.86523 587.09961 261.86523 587.09961 L 417.07617 177.24609 C 417.07617 177.24609 430.28728 111.60344 395.35547 86.423828 C 361.4417 61.978021 309.03183 106.85883 270.05078 91.751953 C 233.2665 77.496415 178.78516 2.2050781 178.78516 2.2050781 C 178.78516 2.2050781 177.63601 0.046294124 175.42969 0.001953125 z M 172.82617 117.79102 C 172.82617 117.79102 215.68797 148.07782 240.71094 152.65039 C 270.07605 158.01644 329.69531 142.55859 329.69531 142.55859 L 126.91406 518.61133 C 126.91406 518.61133 61.413435 414.10228 66.789062 316.16992 C 73.386082 195.98661 172.82617 117.79102 172.82617 117.79102 z M 232.81836 438.01953 L 237.74414 461.23047 C 237.98899 462.42586 239.19373 463.16307 240.36914 462.83984 L 252.19922 459.66406 L 236.97852 490.90625 C 236.56943 491.74887 236.76625 492.7592 237.45898 493.38867 C 238.15303 494.01815 239.17846 494.1129 239.97656 493.62305 L 257.03711 482.95117 L 258.25391 491.57031 C 258.39739 492.56205 259.21933 493.30362 260.2207 493.37305 L 278.16602 494.32031 L 267.53711 510.67773 C 266.95685 511.56756 267.12893 512.75017 267.93945 513.4375 L 273.75 518.31836 L 237.87695 534.28906 C 237.05115 534.65718 236.55536 535.50943 236.63867 536.4082 L 237.58594 547.40625 L 212.4668 537.02734 L 203.06836 562.26758 L 192.57422 557.88086 L 199.30859 532.80859 L 173.99805 530.36719 L 180.31641 521.31836 C 180.83634 520.58166 180.82997 519.59381 180.30078 518.86328 L 157.2207 487.0957 L 164.69141 485.77344 C 165.73606 485.58336 166.48935 484.64499 166.41992 483.58398 L 165.39453 464.10547 L 181.4082 472.25586 C 182.30374 472.70822 183.39268 472.468 184.01367 471.67969 L 189.375 464.82422 L 198.81641 482.5957 C 199.26282 483.4185 200.19792 483.84983 201.11328 483.65234 C 202.02895 483.45471 202.70206 482.6763 202.77148 481.74219 L 205.21094 447.07617 L 213.86719 455.74023 C 214.72377 456.60661 216.13648 456.57017 216.94531 455.6582 L 232.81836 438.01953 z "
           transform="matrix(0.12963171,0,0,0.12963171,89.023255,82.95763)" />
        <path
           style="fill:none;fill-opacity:0.489286;stroke:#000000;stroke-width:3.91957;stroke-miterlimit:4;stroke-dasharray:none;stroke-opacity:1"
           d="M 123.83211,98.119093 V 133.15955"
           id="path4"
           sodipodi:nodetypes="cc" />
        <path
           style="fill:none;fill-opacity:0.489286;stroke:#000000;stroke-width:3.91957;stroke-miterlimit:4;stroke-dasharray:none;stroke-opacity:1"
           d="M 115.80415,96.619018 V 138.65958"
           id="path5"
           sodipodi:nodetypes="cc" />
        <path
           style="fill:none;fill-opacity:0.489286;stroke:#000000;stroke-width:3.91957;stroke-miterlimit:4;stroke-dasharray:none;stroke-opacity:1"
           d="M 107.29644,96.505072 V 153.03248"
           id="path6"
           sodipodi:nodetypes="cc" />
      </g>
    </g>
  </g>
</svg>
