<?xml version="1.0" encoding="UTF-8" standalone="no"?>
<!-- Created with Inkscape (http://www.inkscape.org/) -->

<svg
   width="210mm"
   height="297mm"
   viewBox="0 0 210 297"
   version="1.1"
   id="svg5"
   inkscape:version="1.1.2 (0a00cf5339, 2022-02-04)"
   sodipodi:docname="vsimharp.svg"
   xmlns:inkscape="http://www.inkscape.org/namespaces/inkscape"
   xmlns:sodipodi="http://sodipodi.sourceforge.net/DTD/sodipodi-0.dtd"
   xmlns="http://www.w3.org/2000/svg"
   xmlns:svg="http://www.w3.org/2000/svg">
  <sodipodi:namedview
     id="namedview7"
     pagecolor="#ffffff"
     bordercolor="#000000"
     borderopacity="0.25"
     inkscape:pageshadow="2"
     inkscape:pageopacity="0.0"
     inkscape:pagecheckerboard="0"
     inkscape:document-units="mm"
     showgrid="false"
     inkscape:snap-global="false"
     inkscape:zoom="0.52724989"
     inkscape:cx="127.07447"
     inkscape:cy="372.68856"
     inkscape:window-width="1920"
     inkscape:window-height="1011"
     inkscape:window-x="0"
     inkscape:window-y="0"
     inkscape:window-maximized="1"
     inkscape:current-layer="g8" />
  <defs
     id="defs2" />
  <g
     inkscape:label="Ciseal 1"
     inkscape:groupmode="layer"
     id="layer1">
    <g
       id="g8"
       transform="matrix(2.0410386,0,0,2.0410386,-138.46251,-151.52451)">
      <path
         style="fill:#006400;fill-opacity:1;stroke:none;stroke-width:1;stroke-dasharray:none;stroke-opacity:1"
         d="m 104.15186,92.153817 c 0,0 -13.381549,10.983413 -15.018226,29.437913 -1.681079,18.95516 16.396226,39.24473 16.396226,39.24473 0,0 0.58088,0.76679 1.06039,0.85291 0.47951,0.0861 1.29193,-0.54624 1.29193,-0.54624 l 4.06907,-2.73605 c 0,0 9.36158,2.09986 10.48137,1.36075 0.39309,-0.25946 0.53676,-0.70359 0.53676,-0.70359 l 20.12012,-53.12985 c 0,0 1.71254,-8.509308 -2.81573,-11.773384 -4.3963,-3.168952 -11.1903,2.648966 -16.24348,0.690635 -4.76841,-1.84797 -11.83089,-11.608153 -11.83089,-11.608153 0,0 -0.14884,-0.279977 -0.43485,-0.285725 -0.28602,-0.0057 -0.43836,0.173583 -0.43836,0.173583 l -8.32287,6.424619 c 0,0 -0.323,0.25899 -0.34922,0.533217 -0.0262,0.274226 0.28249,0.662074 0.28249,0.662074 z"
         id="path1"
         sodipodi:nodetypes="csczccsccssczcczcc" />
      <path
         style="fill:#ffffff;fill-opacity:1;stroke:#006400;stroke-width:1;stroke-opacity:1"
         d="m 111.42698,98.226982 c 0,0 -12.890448,10.136828 -13.745631,25.716398 -0.696852,12.69514 7.793891,26.2426 7.793891,26.2426 l 26.28686,-48.74819 c 0,0 -7.72848,2.00372 -11.53513,1.30811 -3.24377,-0.59275 -8.79999,-4.518918 -8.79999,-4.518918 z"
         id="path2"
         sodipodi:nodetypes="csccac" />
      <path
         style="fill:none;fill-opacity:0.489286;stroke:#006400;stroke-width:2;stroke-dasharray:none;stroke-opacity:1"
         d="M 124.87675,97.929903 V 145.67427"
         id="path3"
         sodipodi:nodetypes="cc" />
      <path
         style="fill:none;fill-opacity:0.489286;stroke:#006400;stroke-width:2;stroke-dasharray:none;stroke-opacity:1"
         d="M 120.11424,97.929903 V 145.67427"
         id="path4"
         sodipodi:nodetypes="cc" />
      <path
         style="fill:none;fill-opacity:0.489286;stroke:#006400;stroke-width:2;stroke-dasharray:none;stroke-opacity:1"
         d="M 114.82258,97.929903 V 145.67427"
         id="path5"
         sodipodi:nodetypes="cc" />
      <path
         style="fill:none;fill-opacity:0.489286;stroke:#006400;stroke-width:2;stroke-dasharray:none;stroke-opacity:1"
         d="M 109.53091,99.517403 V 145.67427"
         id="path6"
         sodipodi:nodetypes="cc" />
      <path
         fill="#ffffff"
         d="m 115.34728,155.84538 1.21853,-3.27189 3.25609,1.34535 -0.12286,-1.42564 c -0.0108,-0.11651 0.0536,-0.22696 0.16065,-0.27468 l 4.65027,-2.07039 -0.75315,-0.6327 c -0.10507,-0.0891 -0.12742,-0.24244 -0.0522,-0.35779 l 1.37767,-2.12036 -2.32605,-0.12276 c -0.12981,-0.009 -0.23648,-0.10517 -0.25508,-0.23373 l -0.15761,-1.11725 -2.21171,1.38331 c -0.10346,0.0635 -0.2364,0.0512 -0.32637,-0.0304 -0.0898,-0.0816 -0.11533,-0.21258 -0.0623,-0.32181 l 1.97306,-4.04991 -1.53352,0.41168 c -0.15237,0.0419 -0.30842,-0.0537 -0.34016,-0.20866 l -0.63873,-3.00883 -2.05758,2.28635 c -0.10485,0.11822 -0.28787,0.12311 -0.39891,0.0108 l -1.12222,-1.12327 -0.31626,4.49387 c -0.009,0.12109 -0.0962,0.2219 -0.2149,0.24752 -0.11866,0.0256 -0.23998,-0.0302 -0.29785,-0.13686 l -1.22371,-2.30384 -0.69513,0.88876 c -0.0805,0.10219 -0.22171,0.13344 -0.3378,0.0748 l -2.07578,-1.05674 0.13292,2.52512 c 0.009,0.13754 -0.0886,0.25918 -0.22402,0.28382 l -0.96859,0.17135 2.99204,4.11814 c 0.0686,0.0947 0.0694,0.22269 0.002,0.31819 l -0.81922,1.17322 3.28111,0.31636 -0.87291,3.25023 z"
         id="path2-9"
         sodipodi:nodetypes="cccccccccccccscccccccccscccccccccccccc"
         style="display:inline;fill:#ffffff;fill-opacity:1;stroke-width:0.00420398" />
      <path
         style="fill:none;stroke:#ffffff;stroke-width:0.979893;stroke-linecap:round;stroke-linejoin:round;stroke-miterlimit:4;stroke-dasharray:none;stroke-opacity:1"
         d="m 103.8582,92.545231 c 0,0 2.33423,2.397201 3.56746,3.52631 1.28016,1.172078 3.97211,3.366819 3.97211,3.366819"
         id="path4153"
         sodipodi:nodetypes="cac" />
      <path
         style="fill:none;stroke:#ffffff;stroke-width:0.979893;stroke-linecap:round;stroke-linejoin:round;stroke-miterlimit:4;stroke-dasharray:none;stroke-opacity:1"
         d="m 105.34096,147.98835 c 0,0 2.27499,3.8643 3.45208,5.7724 1.10285,1.78777 3.38212,5.31725 3.38212,5.31725"
         id="path6581"
         sodipodi:nodetypes="cac" />
    </g>
  </g>
</svg>
