<?xml version="1.0" encoding="UTF-8"?>
<svg version="1.1" xmlns="http://www.w3.org/2000/svg" width="649" height="859">
<path d="M0 0 C9.3449882 7.46788797 18.0956383 15.63307096 26.45214844 24.18408203 C33.58645808 31.47158237 41.04903661 37.87595073 49.265625 43.91015625 C50.83570313 45.07998047 50.83570313 45.07998047 52.4375 46.2734375 C77.81695132 64.55043043 105.47080547 72.72610361 136.83984375 68.22265625 C141.71862252 67.37537579 146.49481904 66.23059222 151.265625 64.91015625 C151.98911133 64.71180176 152.71259766 64.51344727 153.45800781 64.30908203 C172.0848162 59.01421588 189.57882843 50.11839335 207.06759644 41.94854736 C245.6263192 23.95142149 286.57932144 12.95095591 328.34375 27.39453125 C343.1987833 32.91467957 355.79252764 41.0332986 367.265625 51.91015625 C368.05324219 52.64492187 368.84085938 53.3796875 369.65234375 54.13671875 C390.18504102 73.86762988 399.79755735 101.99449465 400.54638672 130.0090332 C400.76776058 147.62868965 398.13248324 165.45962679 392.125 182.0625 C391.29806359 184.80266657 391.12722565 186.26456989 391.578125 189.03515625 C391.68253906 189.80730469 391.78695312 190.57945312 391.89453125 191.375 C392.01699219 192.21160156 392.13945313 193.04820312 392.265625 193.91015625 C394.2944725 207.79692798 390.79615902 219.63754774 385.453125 232.41015625 C384.94482954 233.65057758 384.43772431 234.89148713 383.93164062 236.1328125 C382.75523079 239.01293856 381.57175531 241.89004522 380.38427734 244.765625 C377.90550356 250.77495368 375.45486423 256.79569051 373.00390625 262.81640625 C372.53940063 263.95734238 372.07489502 265.0982785 371.59631348 266.27378845 C370.63857382 268.62626667 369.68087163 270.97876014 368.72320557 273.33126831 C367.26055518 276.9226045 365.79629816 280.51328157 364.33154297 284.10375977 C359.075264 296.9901802 353.84588975 309.88561055 348.69726562 322.81542969 C346.01421118 329.54904282 343.3133562 336.27485164 340.58984375 342.9921875 C329.90424161 369.35075177 319.32046681 395.74902264 308.765625 422.16015625 C294.59948619 457.60761619 280.38394901 493.03497972 266.14163971 528.45190048 C253.94846025 558.77348208 241.77577859 589.10304362 229.64833832 619.45098114 C208.1315036 673.2941383 208.1315036 673.2941383 198.05621338 697.97149658 C197.27429267 699.88890163 196.49492969 701.80732717 195.71630859 703.72607422 C194.34398188 707.10288213 192.96306174 710.47600422 191.578125 713.84765625 C191.21541504 714.74226562 190.85270508 715.636875 190.47900391 716.55859375 C183.92350076 732.37817971 174.65731995 747.12198922 158.265625 753.91015625 C148.20027541 757.35300768 137.67290126 758.33990267 127.17382812 759.63696289 C113.46394899 761.3478248 100.3069496 763.88164969 87.453125 769.16015625 C86.65165039 769.48314697 85.85017578 769.8061377 85.02441406 770.13891602 C77.12928337 773.40255447 69.44708436 777.1061299 61.74053955 780.78582764 C36.28137573 792.9360779 9.70130855 804.43884822 -18.734375 806.91015625 C-19.45061035 806.9757373 -20.1668457 807.04131836 -20.90478516 807.10888672 C-46.99397606 809.370203 -78.63272761 807.36774405 -99.734375 789.91015625 C-104.50296483 784.66242581 -106.09484614 779.98794548 -105.9375 772.93359375 C-105.6016328 769.58783973 -104.71210582 767.62953612 -102.734375 764.91015625 C-98.33591246 762.06409226 -94.04241663 760.6877861 -89.01196289 759.26098633 C-78.12085594 756.13015883 -68.96226103 751.47165275 -62.94140625 741.390625 C-60.66650718 736.7156706 -59.11464694 731.91364202 -57.734375 726.91015625 C-57.5075 726.14445313 -57.280625 725.37875 -57.046875 724.58984375 C-49.31261335 693.76021746 -66.04718166 666.0782 -81.25390625 640.625 C-84.86076406 634.66337503 -88.58501035 628.78029435 -92.33789062 622.90991211 C-98.14914785 613.77338867 -103.47188996 604.3706729 -108.734375 594.91015625 C-109.2617627 593.9651123 -109.78915039 593.02006836 -110.33251953 592.04638672 C-139.185946 540.15878511 -161.64494104 483.05020352 -169.734375 423.91015625 C-169.88100586 422.90823242 -170.02763672 421.90630859 -170.17871094 420.87402344 C-180.82376335 346.08394549 -167.26555954 264.61806182 -131.74560547 197.83984375 C-130.65786228 195.76415032 -129.61858979 193.66809898 -128.58203125 191.56640625 C-118.5819872 171.56206913 -105.44619138 153.41717932 -91.99267578 135.61401367 C-90.85957211 134.07968489 -89.79239765 132.49719022 -88.734375 130.91015625 C-89.4975 130.70390625 -90.260625 130.49765625 -91.046875 130.28515625 C-107.7921934 124.04113922 -121.40178924 111.13383701 -128.9296875 94.87890625 C-137.11196005 74.86014235 -135.08973958 53.42746497 -127.421875 33.59765625 C-123.12193924 23.90969124 -117.01866287 14.62982685 -109.734375 6.91015625 C-109.074375 6.91015625 -108.414375 6.91015625 -107.734375 6.91015625 C-107.50492187 6.33910156 -107.27546875 5.76804687 -107.0390625 5.1796875 C-100.07681195 -6.93129325 -83.18099702 -13.43683396 -70.3984375 -17.14453125 C-44.58238435 -23.80496287 -20.72134125 -15.8370251 0 0 Z M-100.421875 23.97265625 C-111.86746116 38.66492573 -117.1768239 55.25849062 -115.734375 73.91015625 C-113.68768226 88.0152804 -106.90003797 98.56993978 -95.87109375 107.40234375 C-89.822156 111.57313166 -82.65261952 113.62674689 -75.734375 115.91015625 C-71.52005976 111.25948139 -67.41514092 106.55385203 -63.484375 101.66015625 C-59.57754083 96.83723683 -55.44231661 92.29633122 -51.19873047 87.7734375 C-47.06116436 83.33662601 -43.23560371 78.72123732 -39.4765625 73.95703125 C-37.2781206 71.37410847 -36.3536914 70.98053311 -32.984375 70.59765625 C-26.43077579 71.22781002 -21.66087584 76.61044695 -16.921875 80.84765625 C20.18666861 113.42060835 66.98693736 139.72007572 117.92626953 137.07861328 C129.14617281 136.27066784 140.18701593 134.39391556 151.078125 131.59765625 C151.76898193 131.42145752 152.45983887 131.24525879 153.17163086 131.0637207 C166.98300373 127.27783785 180.04740922 121.34824232 193.0255127 115.39221191 C258.39418119 85.44160157 258.39418119 85.44160157 286.203125 85.59765625 C287.25709473 85.6032959 288.31106445 85.60893555 289.39697266 85.61474609 C301.44664368 85.80316795 310.29181104 88.0208366 320.265625 94.91015625 C321.1525 95.48765625 322.039375 96.06515625 322.953125 96.66015625 C331.53430218 105.00940972 336.82593487 116.23905783 337.43359375 128.22265625 C337.47835866 136.67427092 336.83741007 144.58811563 335.265625 152.91015625 C336.379375 153.10609375 337.493125 153.30203125 338.640625 153.50390625 C350.66917993 155.79581748 362.36760924 159.29027354 372.02734375 167.16015625 C374.18598961 169.21812499 374.18598961 169.21812499 377.265625 168.91015625 C377.9176277 166.09896321 378.56232621 163.28640594 379.203125 160.47265625 C379.38552734 159.68955078 379.56792969 158.90644531 379.75585938 158.09960938 C384.66088914 136.42829604 383.52888287 113.25248106 374.265625 92.91015625 C373.811875 91.88277344 373.358125 90.85539062 372.890625 89.796875 C369.55423958 82.66172465 365.53136043 76.75405519 360.265625 70.91015625 C359.83507812 70.43046387 359.40453125 69.95077148 358.9609375 69.45654297 C342.39834592 51.26225539 319.66747648 40.42757785 294.97900391 39.02294922 C277.21394698 38.28447016 259.94547163 40.75470914 243.265625 46.91015625 C242.14285156 47.3175 241.02007812 47.72484375 239.86328125 48.14453125 C230.45361389 51.74327917 221.37155104 56.05779827 212.24047852 60.30371094 C169.08201681 80.34101359 123.8104243 97.87598353 76.62109375 80.640625 C50.28216268 70.46328553 27.86007908 51.80355541 8.265625 31.84765625 C-7.84499934 15.5079709 -26.58980502 -0.26116458 -50.671875 -0.58984375 C-70.62400756 -0.35923173 -87.43180583 9.13322903 -100.421875 23.97265625 Z M-34.609375 95.67578125 C-35.66125 96.90554687 -35.66125 96.90554687 -36.734375 98.16015625 C-39.7247858 101.60204141 -42.73112076 105.01016347 -45.83789062 108.34643555 C-50.57723828 113.44123427 -55.08047609 118.6676723 -59.44140625 124.09375 C-61.44028095 126.54892659 -63.48957279 128.94911623 -65.56518555 131.33935547 C-117.11802142 191.02820664 -147.7473911 264.59191244 -154.734375 342.91015625 C-154.84023926 344.07877197 -154.84023926 344.07877197 -154.94824219 345.27099609 C-162.49322546 433.19599961 -132.12355377 521.5948583 -87.41455078 596.10986328 C-85.8022566 598.79702025 -84.20223225 601.49109295 -82.60546875 604.1875 C-77.73403414 612.38820771 -72.74542569 620.49765575 -67.609375 628.53515625 C-56.4820017 646.01562169 -45.22354646 664.77356409 -39.734375 684.91015625 C-39.51007813 685.71582031 -39.28578125 686.52148438 -39.0546875 687.3515625 C-35.49943558 702.9118774 -37.57032348 719.48540507 -40.734375 734.91015625 C-26.75403071 721.45035669 -17.53291198 703.48066768 -7.734375 686.91015625 C-6.9967497 685.66633823 -6.2591195 684.42252312 -5.52148438 683.17871094 C-3.41263631 679.61762993 -1.32144452 676.04654762 0.765625 672.47265625 C1.40661133 671.38364014 2.04759766 670.29462402 2.70800781 669.17260742 C3.29420898 668.1591626 3.88041016 667.14571777 4.484375 666.1015625 C4.99935547 665.21670166 5.51433594 664.33184082 6.04492188 663.42016602 C7.30615358 660.82682138 8.01601161 658.78290497 8.265625 655.91015625 C7.62015106 654.02879631 7.62015106 654.02879631 6.37890625 652.37109375 C5.94151123 651.71874756 5.50411621 651.06640137 5.0534668 650.39428711 C4.566604 649.69827393 4.07974121 649.00226074 3.578125 648.28515625 C2.54835904 646.75335659 1.51975298 645.22077666 0.4921875 643.6875 C-0.04374023 642.89714355 -0.57966797 642.10678711 -1.13183594 641.29248047 C-39.70863178 583.94446496 -68.86793819 521.19891439 -84.734375 453.91015625 C-84.97881348 452.88760742 -85.22325195 451.86505859 -85.47509766 450.81152344 C-88.55181239 437.74590237 -90.62429429 424.56851636 -92.484375 411.28515625 C-92.59155853 410.52361237 -92.69874207 409.76206848 -92.80917358 408.97744751 C-95.12474076 392.36192215 -95.97371961 375.92885247 -95.984375 359.16015625 C-95.98504974 358.19817322 -95.98572449 357.23619019 -95.98641968 356.24505615 C-95.88824412 267.35672682 -67.97176882 179.97198796 -15.734375 107.91015625 C-17.29675517 103.7567481 -20.33459616 101.39029637 -23.671875 98.66015625 C-24.21005859 98.20125 -24.74824219 97.74234375 -25.30273438 97.26953125 C-29.79512992 93.34145114 -29.79512992 93.34145114 -34.609375 95.67578125 Z M206.265625 128.91015625 C206.16795115 131.32604598 206.13565822 133.71331009 206.14537048 136.12965393 C206.14451606 136.89413265 206.14366163 137.65861136 206.14278132 138.4462561 C206.14112421 141.02742643 206.14665163 143.60853285 206.15209961 146.18969727 C206.15238146 148.03218586 206.15222379 149.87467456 206.1516571 151.71716309 C206.15136904 156.73554862 206.15726725 161.75391046 206.16423106 166.77229047 C206.17046307 172.01070363 206.17106828 177.24911727 206.17225647 182.48753357 C206.17537024 192.41460116 206.18358424 202.34165781 206.19360596 212.26872057 C206.20476569 223.5671972 206.21027719 234.86567435 206.21530139 246.16415513 C206.22576682 269.41282825 206.24336713 292.66149164 206.265625 315.91015625 C206.925625 315.91015625 207.585625 315.91015625 208.265625 315.91015625 C217.7832242 299.31493775 227.23029623 282.6841736 236.55224609 265.97802734 C238.27260397 262.89766013 239.99690759 259.81953746 241.72265625 256.7421875 C247.14269314 247.07687379 252.55078328 237.40529183 257.92578125 227.71484375 C265.30609094 214.40906982 272.69358612 201.10806119 280.265625 187.91015625 C280.65830566 187.22195801 281.05098633 186.53375977 281.45556641 185.82470703 C289.15354049 172.42375621 298.20773398 161.66549435 312.703125 155.59765625 C316.34515753 153.80808611 318.00615432 152.51457462 319.390625 148.66015625 C321.65132823 137.79576949 321.87446292 125.72099485 316.265625 115.91015625 C315.75708984 114.94722656 315.75708984 114.94722656 315.23828125 113.96484375 C311.79222623 108.29908781 305.72435268 104.23605328 299.38964844 102.35229492 C274.0944047 97.08681372 224.43858666 110.73719459 206.265625 128.91015625 Z M2.265625 118.91015625 C2.09436455 165.97135237 1.93516842 213.03257275 1.8421936 260.09399414 C1.84081303 260.79101505 1.83943246 261.48803596 1.83801006 262.20617871 C1.80807785 277.3559543 1.78037648 292.5057332 1.75497171 307.65551704 C1.74249883 315.08544959 1.72953322 322.51538125 1.71630859 329.9453125 C1.715001 330.68466233 1.71369341 331.42401216 1.7123462 332.18576653 C1.66976671 356.13095418 1.59467933 380.07590514 1.50265279 404.02094953 C1.40822038 428.63682469 1.34674599 453.25256897 1.3264751 477.8686222 C1.32359374 481.34903012 1.32033738 484.8294376 1.31685257 488.30984497 C1.31617834 488.99480884 1.31550411 489.67977271 1.31480945 490.38549306 C1.30301275 501.39174777 1.25668836 512.39759667 1.19730466 523.40368618 C1.13828091 534.48061834 1.11678965 545.55724354 1.13061123 556.63435066 C1.13700817 562.63158793 1.12729471 568.62763872 1.07357025 574.62466431 C1.02467358 580.12311896 1.02259404 585.61959677 1.05663605 591.11814511 C1.06083906 593.09961418 1.04834538 595.08120987 1.01679318 597.06243217 C0.81912594 610.2487571 3.02324796 618.7189181 11.05389233 629.298895 C12.78064262 631.59498382 14.33061189 633.99892783 15.890625 636.41015625 C16.67973106 637.57855638 17.47016696 638.74607132 18.265625 639.91015625 C25.00149855 633.61484516 29.51546769 626.35949289 30.16858986 617.1275426 C30.31577414 612.66322855 30.28499346 608.21023541 30.22766113 603.74455261 C30.23115427 601.71217199 30.23816724 599.67979491 30.24837446 597.64743692 C30.26618967 592.08957037 30.23436641 586.53294653 30.19414997 580.9752382 C30.15950538 574.97200409 30.17130008 568.9688364 30.17736816 562.9655304 C30.18155689 552.57342616 30.15680147 542.1816535 30.11146545 531.78966331 C30.06406142 520.89561232 30.03332431 510.00172212 30.02464294 499.10756874 C30.02409303 498.42915243 30.02354311 497.75073613 30.02297653 497.05176175 C30.02026971 493.60615635 30.0178587 490.16055081 30.01556152 486.71494512 C29.99877683 462.33614002 29.9449302 437.95754452 29.86914062 413.57885742 C29.79561644 389.90145987 29.73897151 366.22411976 29.70507812 342.54663086 C29.70402592 341.8162533 29.70297371 341.08587575 29.70188961 340.33336554 C29.69134107 332.99833505 29.68113462 325.66330413 29.67117874 318.32827282 C29.6508913 303.38716519 29.62832129 288.4460613 29.60437012 273.50495911 C29.6032718 272.8180543 29.60217348 272.1311495 29.60104188 271.4234294 C29.52748834 225.58558302 29.40056596 179.74785868 29.265625 133.91015625 C28.15445313 133.33007812 27.04328125 132.75 25.8984375 132.15234375 C17.8845987 127.95041524 9.93877744 123.71765962 2.265625 118.91015625 Z M166.265625 145.91015625 C166.265625 225.11015625 166.265625 304.31015625 166.265625 385.91015625 C170.29708613 384.56633587 170.66528847 382.88647945 172.6640625 379.1875 C172.98089996 378.60859512 173.29773743 378.02969025 173.62417603 377.4332428 C174.63857807 375.57607246 175.64004661 373.71230486 176.640625 371.84765625 C177.63640803 370.00938072 178.63489283 368.17262322 179.63565063 366.33705139 C180.55155913 364.65436506 181.46031556 362.96779154 182.36865234 361.28100586 C184.265625 357.91015625 184.265625 357.91015625 185.52348775 356.14774275 C189.15256233 350.97721048 189.98030975 347.14170819 189.86689758 340.89978027 C189.87116971 340.02723177 189.87544183 339.15468328 189.87984341 338.25569391 C189.88803814 335.35026838 189.86064703 332.44630672 189.83325195 329.54101562 C189.83184072 327.45119257 189.83263493 325.36136703 189.83546448 323.27154541 C189.83689709 317.61082441 189.80753181 311.95063483 189.77259469 306.29003716 C189.74130571 300.36969584 189.73839843 294.4493419 189.73246765 288.52893066 C189.71693675 277.32346774 189.67591822 266.11824917 189.6257202 254.91289377 C189.56980352 242.15361432 189.54233434 229.3943231 189.51724303 216.63495159 C189.46500191 190.39321776 189.37707402 164.1517007 189.265625 137.91015625 C181.14842789 137.91015625 173.80225331 142.89550493 166.265625 145.91015625 Z M-15.734375 139.91015625 C-21.31707153 146.89636227 -25.45116667 154.65517941 -29.484375 162.59765625 C-30.0960145 163.79448242 -30.70775131 164.99125886 -31.31958008 166.18798828 C-33.13808921 169.75527417 -34.93662123 173.33236804 -36.734375 176.91015625 C-37.24081543 177.90837402 -37.74725586 178.9065918 -38.26904297 179.93505859 C-65.74694307 234.31859798 -79.28059835 295.08459309 -79.046875 355.91015625 C-79.04471985 356.93129517 -79.0425647 357.95243408 -79.04034424 359.0045166 C-78.98268225 376.13579348 -78.22472912 392.93636794 -75.734375 409.91015625 C-75.63727234 410.57905884 -75.54016968 411.24796143 -75.44012451 411.93713379 C-67.0007941 469.70211637 -48.84757224 525.61220983 -19.6953125 576.36328125 C-18.1189246 579.13549915 -16.8185155 581.90254066 -15.734375 584.91015625 C-15.404375 584.91015625 -15.074375 584.91015625 -14.734375 584.91015625 C-14.734375 438.06015625 -14.734375 291.21015625 -14.734375 139.91015625 C-15.064375 139.91015625 -15.394375 139.91015625 -15.734375 139.91015625 Z M46.265625 141.91015625 C46.265625 290.74015625 46.265625 439.57015625 46.265625 592.91015625 C46.925625 592.91015625 47.585625 592.91015625 48.265625 592.91015625 C48.69230469 592.14316406 49.11898437 591.37617187 49.55859375 590.5859375 C50.18378906 589.47605469 50.80898438 588.36617187 51.453125 587.22265625 C51.78375201 586.61316861 52.11437901 586.00368098 52.45502502 585.37572402 C54.55179421 581.60123115 56.7552231 578.21990488 59.52746105 574.90516376 C72.49399275 558.53109833 71.05776532 540.81745228 70.77447808 520.97923839 C70.71776092 515.98775657 70.73737592 510.99645938 70.74720764 506.00474548 C70.75398849 497.37925539 70.71358255 488.7550544 70.64011574 480.12988853 C70.53396992 467.65994461 70.50055717 455.19061705 70.48427185 442.72027037 C70.4558963 422.48300172 70.36959238 402.24641849 70.24633789 382.00952148 C70.12681075 362.36404828 70.03488973 342.71876198 69.97973633 323.07299805 C69.97632092 321.85982104 69.97290552 320.64664404 69.96938661 319.3967041 C69.95241978 313.30988752 69.9359919 307.22306963 69.91983187 301.13625085 C69.78530352 250.72707925 69.55654354 200.31865137 69.265625 149.91015625 C61.66800382 146.96413987 54.02693664 144.49726013 46.265625 141.91015625 Z M136.640625 152.34765625 C135.75632812 152.48236328 134.87203125 152.61707031 133.9609375 152.75585938 C132.70023437 152.95405273 132.70023437 152.95405273 131.4140625 153.15625 C130.64239746 153.27669678 129.87073242 153.39714355 129.07568359 153.52124023 C127.25336804 153.74148413 127.25336804 153.74148413 126.265625 154.91015625 C126.16812218 156.33743369 126.14007054 157.7695189 126.13978386 159.20012283 C126.13717611 160.13171321 126.13456836 161.06330359 126.13188159 162.02312398 C126.13411232 163.0587676 126.13634304 164.09441123 126.13864136 165.16143799 C126.13708137 166.25255725 126.13552138 167.34367651 126.13391411 168.46785998 C126.12989816 172.15599557 126.13309631 175.84409061 126.13623047 179.53222656 C126.13487647 182.16509017 126.13309655 184.79795359 126.13092041 187.43081665 C126.12645831 193.86602926 126.12744232 200.30123024 126.13033305 206.73644331 C126.13259085 211.98073725 126.13289794 217.22502792 126.13180923 222.4693222 C126.131656 223.21571201 126.13150277 223.96210181 126.13134489 224.73110949 C126.13102514 226.24772575 126.13070093 227.76434201 126.1303723 229.28095827 C126.12751483 243.53522201 126.13080585 257.78947934 126.13617267 272.04374203 C126.14061534 284.21796669 126.13988642 296.39218178 126.13525391 308.56640625 C126.12986836 322.72603791 126.12781647 336.88566389 126.13086617 351.04529643 C126.13118467 352.56491391 126.13149904 354.08453139 126.13180923 355.60414886 C126.13196351 356.35161122 126.13211779 357.09907357 126.13227674 357.8691863 C126.13313196 363.07987856 126.13170016 368.29056716 126.12932968 373.50125885 C126.12648594 379.892948 126.12736301 386.28462492 126.13261043 392.67631271 C126.13519107 395.9243975 126.13578876 399.17245852 126.13296127 402.42054367 C126.11887459 420.27482393 126.54251342 438.07170569 127.265625 455.91015625 C129.97755597 453.31443405 131.63024315 450.73235406 133.4453125 447.4296875 C134.04472656 446.34751953 134.64414062 445.26535156 135.26171875 444.15039062 C136.19177734 442.45366211 136.19177734 442.45366211 137.140625 440.72265625 C138.36527669 438.4989466 139.59180127 436.27626724 140.8203125 434.0546875 C141.36155762 433.06831299 141.90280273 432.08193848 142.46044922 431.06567383 C144.265625 427.91015625 144.265625 427.91015625 145.51452321 426.2448473 C149.68028437 420.48617518 149.96604473 415.70247063 149.86689758 408.73583984 C149.87116971 407.63052886 149.87544183 406.52521788 149.87984341 405.38641262 C149.88806027 401.69339031 149.86060778 398.00151093 149.83325195 394.30859375 C149.8318412 391.65717518 149.83241395 389.00582599 149.83546448 386.35441589 C149.83808115 380.65169508 149.82244739 374.94926119 149.79427528 369.24661255 C149.75357044 361.00167916 149.74061096 352.75688394 149.73433533 344.51186097 C149.72340306 331.13364255 149.69015795 317.75557691 149.64282227 304.37744141 C149.59689896 291.38493614 149.56152065 278.39247243 149.5402832 265.39990234 C149.53896959 264.59850232 149.53765597 263.7971023 149.53630254 262.97141743 C149.52977717 258.9508676 149.52345867 254.93031747 149.51724303 250.90976715 C149.46544329 217.57645274 149.37740722 184.24332325 149.265625 150.91015625 C144.98295006 150.91015625 140.86429555 151.67994363 136.640625 152.34765625 Z M86.265625 152.91015625 C86.265625 275.34015625 86.265625 397.77015625 86.265625 523.91015625 C86.925625 524.24015625 87.585625 524.57015625 88.265625 524.91015625 C90.61395075 520.9085816 92.96175014 516.90669875 95.30908203 512.90454102 C96.10614121 511.54573414 96.90333913 510.18700863 97.70068359 508.82836914 C98.85291268 506.86496501 100.004627 504.90125968 101.15625 502.9375 C101.50745911 502.3392894 101.85866821 501.7410788 102.22052002 501.1247406 C102.8854642 499.99045012 103.5431031 498.85183029 104.19171357 497.70812136 C105.265625 495.91015625 105.265625 495.91015625 107.3614769 493.03921413 C110.44630603 487.57454981 109.8022105 481.48911263 109.74664307 475.38844299 C109.74838863 474.00471508 109.75189327 472.62098846 109.75699973 471.23726887 C109.76592664 467.44478828 109.74996791 463.65276116 109.72988749 459.86033833 C109.71259374 455.76703566 109.71846055 451.67375801 109.72149658 447.58042908 C109.72359273 440.49176043 109.7110559 433.40323919 109.68854523 426.31460762 C109.65601997 416.0656952 109.64561767 405.81685396 109.64059326 395.56789552 C109.63184144 378.93918488 109.6052289 362.31055277 109.56738281 345.68188477 C109.53065982 329.52987053 109.50234946 313.37787764 109.48535156 297.22583008 C109.48377522 295.73210389 109.48377522 295.73210389 109.48216704 294.20820142 C109.47694684 289.21241619 109.47189202 284.21663082 109.46691942 279.22084534 C109.42546089 237.78389382 109.3547179 196.34703077 109.265625 154.91015625 C101.675625 154.25015625 94.085625 153.59015625 86.265625 152.91015625 Z M303.265625 182.91015625 C299.48673167 188.30197172 296.42626075 194.14518151 293.265625 199.91015625 C292.09649739 202.01122155 290.92583311 204.11143227 289.75390625 206.2109375 C287.50645038 210.24238092 285.26461925 214.27681335 283.03100586 218.31593323 C279.31440412 225.03617763 275.5551839 231.73083169 271.765625 238.41015625 C267.05398181 246.71884477 262.3965332 255.05621049 257.765625 263.41015625 C247.97730966 281.05783959 238.03520926 298.60928344 227.92407227 316.07397461 C223.61846296 323.52541638 219.39027813 331.01660565 215.203125 338.53515625 C210.12525489 347.6485706 204.93087452 356.68522202 199.65380859 365.68457031 C195.15987948 373.35530693 190.73081417 381.06181721 186.328125 388.78515625 C181.16508023 397.84105171 175.98196832 406.88480345 170.765625 415.91015625 C165.5732194 424.89556665 160.40911249 433.89669422 155.265625 442.91015625 C138.56159797 472.17633158 121.57911306 501.27829556 104.53009033 530.34437561 C101.31359282 535.82804776 98.0983725 541.31246786 94.88354492 546.79711914 C93.47120621 549.20661351 92.05859169 551.61594586 90.64575195 554.02514648 C87.43628647 559.49836831 84.22823874 564.97239885 81.02679443 570.45031738 C73.401241 583.49797972 65.72882403 596.51324363 57.92919922 609.45800781 C53.1473503 617.40715365 48.44549825 625.40077894 43.765625 633.41015625 C37.8897009 643.46651688 31.94430825 653.47702475 25.93188477 663.45263672 C21.4946103 670.82798773 17.12913438 678.24269936 12.78930664 685.67556763 C-10.69396551 725.87991659 -10.69396551 725.87991659 -19.734375 736.91015625 C-20.1689502 737.45929687 -20.60352539 738.0084375 -21.05126953 738.57421875 C-37.54051235 759.37620899 -57.76412755 769.87939415 -82.734375 777.91015625 C-79.80451641 781.11424077 -76.67434724 782.19897828 -72.609375 783.47265625 C-71.93358398 783.68954102 -71.25779297 783.90642578 -70.56152344 784.12988281 C-41.77783526 793.21874266 -5.94017025 790.52120387 21.140625 776.97265625 C27.01359821 773.873377 32.35464782 770.38563168 37.265625 765.91015625 C38.07257813 765.19472656 38.87953125 764.47929688 39.7109375 763.7421875 C58.20027624 746.41196632 67.87208165 719.86667143 78.95117188 697.50292969 C82.01598494 691.32767819 85.10668187 685.17298118 88.35262966 679.0906105 C96.06254092 664.6210299 103.33148975 649.92527874 110.6581409 635.25944996 C112.64165302 631.28985207 114.627155 627.32124952 116.61231995 623.35247803 C119.94456107 616.68980389 123.27513568 610.02629872 126.60473633 603.36230469 C130.42179292 595.72275962 134.24171999 588.08465515 138.06315273 580.44729829 C141.37624218 573.82569929 144.68773023 567.20330117 147.99794918 560.58026671 C149.9607949 556.65303798 151.92413805 552.72606045 153.88894463 548.79981232 C161.73645662 533.11644616 169.52422856 517.41477747 177.04603577 501.57171631 C179.62132113 496.14858309 182.27775335 490.76885939 184.984375 485.41015625 C185.6876593 484.00926758 185.6876593 484.00926758 186.40515137 482.58007812 C188.33800384 478.73014632 190.275863 474.88274265 192.21337891 471.03515625 C197.9476082 459.64023824 203.59077711 448.21152934 209.07069397 436.69198608 C213.98321927 426.37441463 219.02149967 416.11956898 224.06512451 405.86560059 C226.90691402 400.08756704 229.7442303 394.30733698 232.58203125 388.52734375 C233.1493396 387.37206177 233.71664795 386.21677979 234.30114746 385.02648926 C239.17614096 375.09714294 244.03955095 365.16218497 248.89068604 355.22116089 C249.71934734 353.52331363 250.54840377 351.82565916 251.37786865 350.12820435 C255.31455199 342.07167405 259.23571534 334.00969317 263.05859375 325.8984375 C263.6201416 324.71088867 264.18168945 323.52333984 264.76025391 322.29980469 C265.76636255 320.16476131 266.7653758 318.02635158 267.75537109 315.88378906 C268.18285645 314.9759668 268.6103418 314.06814453 269.05078125 313.1328125 C269.41051025 312.35687744 269.77023926 311.58094238 270.14086914 310.78149414 C271.265625 308.91015625 271.265625 308.91015625 274.265625 306.91015625 C276.45703125 306.828125 276.45703125 306.828125 278.828125 307.09765625 C280.00568359 307.21173828 280.00568359 307.21173828 281.20703125 307.328125 C283.265625 307.91015625 283.265625 307.91015625 285.265625 310.91015625 C285.69233687 315.98095931 284.98296031 319.38065604 282.80859375 323.9453125 C282.27862793 325.07300049 281.74866211 326.20068848 281.20263672 327.36254883 C280.61989259 328.56612454 280.03671156 329.76948879 279.453125 330.97265625 C278.85599594 332.22831429 278.2598159 333.48442405 277.66455078 334.7409668 C273.22305281 344.07857422 268.60721259 353.32946861 263.9453125 362.55859375 C259.22617777 371.93136754 254.76856872 381.43227542 250.265625 390.91015625 C248.37223727 394.89049244 246.47575612 398.86934171 244.578125 402.84765625 C244.16304688 403.72156006 243.74796875 404.59546387 243.3203125 405.49584961 C239.41258569 413.68944581 235.34100504 421.7991209 231.265625 429.91015625 C230.58028957 431.27480454 229.89498662 432.63946915 229.2097168 434.00415039 C228.87065308 434.67937241 228.53158936 435.35459442 228.18225098 436.05027771 C221.05919315 450.23740039 213.95264656 464.4239042 207.15698242 478.77172852 C203.52911199 486.41388202 199.76414466 493.98296704 195.93823242 501.52783203 C193.17178188 507.00908873 190.49313904 512.52342641 187.8638916 518.0715332 C182.53920909 529.29536578 177.04852743 540.42861339 171.484375 551.53515625 C171.09314453 552.31617706 170.70191406 553.09719788 170.29882812 553.90188599 C167.04658946 560.39233073 163.78913298 566.88015382 160.53155518 573.36791992 C157.70096935 579.00581766 154.87242863 584.64473473 152.046875 590.28515625 C151.65785381 591.06153254 151.26883263 591.83790882 150.86802292 592.63781166 C145.708245 602.94194153 140.64431865 613.28290385 135.70828247 623.69645691 C132.5011168 630.45573741 129.13982309 637.10893939 125.640625 643.72265625 C120.10677078 654.29048727 114.71402063 664.92240945 109.390625 675.59765625 C109.04199402 676.29678131 108.69336304 676.99590637 108.33416748 677.71621704 C106.64089203 681.1131337 104.949212 684.51084152 103.25830078 687.90893555 C101.2865618 691.87017421 99.30807168 695.82801502 97.328125 699.78515625 C94.84968204 704.73861068 92.37578516 709.6942911 89.90719604 714.65266418 C88.37305891 717.73362687 86.83723869 720.81374914 85.30126953 723.89379883 C84.52322028 725.45497086 83.7458841 727.01649846 82.96923828 728.57836914 C81.81737584 730.89436836 80.66323463 733.20921228 79.5078125 735.5234375 C79.14250427 736.25636017 78.77719604 736.98928284 78.40081787 737.74441528 C75.81528822 742.89987794 73.07289173 747.94611867 70.16845703 752.93041992 C69.87052246 753.58373291 69.57258789 754.2370459 69.265625 754.91015625 C69.595625 755.57015625 69.925625 756.23015625 70.265625 756.91015625 C70.79704102 756.69399658 71.32845703 756.47783691 71.87597656 756.25512695 C91.21515224 748.45940999 109.75097125 743.73183889 130.47241211 741.42871094 C145.96259672 739.61641404 157.27376527 736.11367703 167.54833984 724.18603516 C170.39384783 720.41494823 172.11503146 716.32694002 173.890625 711.97265625 C174.30393066 710.99176025 174.71723633 710.01086426 175.14306641 709.00024414 C179.53703758 698.47332499 183.69695758 687.84637195 187.8354187 677.21678162 C196.85469914 654.06322352 206.21712702 631.04222425 215.50912952 607.99712181 C226.60371254 580.48128838 237.66935722 552.95422852 248.67391968 525.4022522 C253.19169781 514.0922187 257.71491354 502.78436144 262.23828125 491.4765625 C262.64171061 490.46802656 263.04513996 489.45949062 263.46079445 488.42039299 C267.66089603 477.92055835 271.86125346 467.4208261 276.06190205 456.92121029 C278.1220732 451.77172268 280.182153 446.62219853 282.2421875 441.47265625 C282.64213614 440.47290331 283.04208477 439.47315037 283.45415306 438.44310188 C288.17484157 426.64239922 292.89215375 414.8403649 297.6015625 403.03515625 C305.56152398 383.08647254 313.58322725 363.16729867 321.76416016 343.30810547 C326.04764877 332.90680909 330.25610545 322.47911792 334.41040039 312.02539062 C337.56148636 304.11702924 340.76423504 296.23118418 343.99609375 288.35546875 C355.62756544 260.03140403 355.62756544 260.03140403 366.828125 231.53515625 C367.09188934 230.85304077 367.35565369 230.17092529 367.62741089 229.46813965 C374.96056175 212.42209348 374.96056175 212.42209348 373.390625 194.66796875 C368.06255494 183.97482814 359.2737515 177.15475623 348.265625 172.91015625 C332.39457209 167.88442701 314.40247503 169.56159435 303.265625 182.91015625 Z " fill="#000000" transform="translate(219.734375,36.08984375)"/>
</svg>
