<?xml version="1.0" encoding="UTF-8" standalone="no"?>
<!-- Created with Inkscape (http://www.inkscape.org/) -->

<svg
   width="106.14376"
   height="146.19325"
   viewBox="0 0 28.083869 38.680298"
   version="1.1"
   id="svg1"
   xml:space="preserve"
   inkscape:version="1.1.2 (0a00cf5339, 2022-02-04)"
   sodipodi:docname="vsimharp3.svg"
   inkscape:export-filename="logo_160_160.png"
   inkscape:export-xdpi="96"
   inkscape:export-ydpi="96"
   xmlns:inkscape="http://www.inkscape.org/namespaces/inkscape"
   xmlns:sodipodi="http://sodipodi.sourceforge.net/DTD/sodipodi-0.dtd"
   xmlns="http://www.w3.org/2000/svg"
   xmlns:svg="http://www.w3.org/2000/svg"><sodipodi:namedview
     id="namedview1"
     pagecolor="#ffffff"
     bordercolor="#000000"
     borderopacity="0.25"
     inkscape:showpageshadow="2"
     inkscape:pageopacity="0.0"
     inkscape:pagecheckerboard="0"
     inkscape:deskcolor="#d1d1d1"
     inkscape:document-units="mm"
     inkscape:zoom="1.7246094"
     inkscape:cx="40.588901"
     inkscape:cy="142.93092"
     inkscape:window-width="1920"
     inkscape:window-height="1011"
     inkscape:window-x="0"
     inkscape:window-y="0"
     inkscape:window-maximized="1"
     inkscape:current-layer="g8"
     showgrid="false"
     inkscape:pageshadow="2"
     fit-margin-top="0"
     fit-margin-left="0"
     fit-margin-right="0"
     fit-margin-bottom="0" /><defs
     id="defs1" /><g
     inkscape:groupmode="layer"
     id="layer2"
     inkscape:label="logo"
     style="display:inline"
     transform="translate(-7.748101,-2.7905526)"><g
       id="g8"
       transform="matrix(0.5272888,0,0,0.5272888,-39.785011,-43.256883)"><path
         id="path1"
         style="fill:#000000;fill-opacity:1;stroke:none;stroke-width:1.9929;stroke-dasharray:none;stroke-opacity:1"
         d="M 67.962422,10.546971 C 43.167776,32.586789 33.545989,51.359011 29.734343,76.268766 24.800109,108.4891 62.054688,156.74023 62.054688,156.74023 l 12.804687,-6.18554 18.767578,4.35742 41.167967,-107.285157 c 0,0 3.41307,-16.957905 -5.61133,-23.462891 -8.76139,-6.315412 -23.369,3.386817 -32.37109,1.375 C 85.672044,23.049356 67.962422,10.546971 67.962422,10.546971 Z m 3.73289,21.718654 c 10e-7,0 11.033504,6.063224 17.53711,7.005859 10.978908,1.591288 22.988278,-0.605468 22.988278,-0.605468 L 63.636719,131.56641 c 0,0 -19.186143,-23.66184 -17.775391,-51.294926 1.585444,-31.054862 25.833984,-48.005859 25.833984,-48.005859 z"
         sodipodi:nodetypes="ccccccssccsccsc"
         transform="matrix(0.50178068,0,0,0.50178068,75.452031,82.036415)" /><path
         fill="#ffffff"
         d="m 109.00339,127.35002 0.86354,-3.60713 4.31289,1.42345 0.0467,-2.10316 5.75203,-2.56094 -0.99612,-1.22516 1.70407,-2.62273 -3.19267,-0.44094 -0.19495,-1.38196 -3.1394,1.6734 2.36352,-5.4075 -2.31759,0.25113 -0.79008,-3.72171 -3.03849,2.84129 -1.38812,-1.38939 -0.61122,5.63468 -1.92783,-2.78891 -0.85983,1.09933 -2.98541,-1.21463 0.16442,3.12338 -1.47517,0.563 3.70093,5.09383 -1.01073,1.84478 4.45983,0.84215 -1.31557,3.48601 z"
         id="path2-9"
         sodipodi:nodetypes="cccccccccccccccccccccccccc"
         style="display:inline;fill:#000000;fill-opacity:1;stroke-width:0.00520002" /></g></g></svg>
